# xmcd
#
# Track frame offsets: 
#        150
#        12039
#        25179
#        44992
#        66797
#        81926
#        96816
#        111688
#        128260
#        143972
#        161769
#        174388
#        191314
#        207400
#        221347
#        236032
#        249971
#        262861
#        277102
#        296309
#        311784
#        326566
#        336218
#
# Disc length: 4655 seconds
#
# Revision: 0
# Processed by: cddbd v1.5.2PL0 Copyright (c) Steve Scherf et al.
# Submitted via: ExactAudioCopy v0.99pb3
#
DISCID=53122d17
DTITLE=Cowboy Cool - Cowboy Cool
DYEAR=2007
DGENRE=Country
TTITLE0=Calling Out My Name
TTITLE1=Promise Me This
TTITLE2=The Man From Idaho
TTITLE3=The Trail Of Tears
TTITLE4=Just Let Hank Sing
TTITLE5=I Love You Doesn't Live Here Anymore
TTITLE6=Old Honkey-tonks Never Want To Die
TTITLE7=Operator Operator
TTITLE8=A Long Time Ago
TTITLE9=I Need Me A Cowboy
TTITLE10=Call 9-1-1
TTITLE11=The Cheating Side You Showed Me
TTITLE12=I Slipped And Fell (In Love With You)
TTITLE13=Please Don't Ask (And I Won't Tell)
TTITLE14=All That I Remember
TTITLE15=Don't Play Me Your Cheating Heart
TTITLE16=Darlin If You Ever
TTITLE17=Three Magic Wishes
TTITLE18=Nashville Tennessee
TTITLE19=I'll See You When You Call My Name
TTITLE20=That's How My Best Friend Said Goodbye
TTITLE21=Mom's Farewell Waltz
TTITLE22=A Soldier's Story
EXTD=
EXTT0=
EXTT1=
EXTT2=
EXTT3=
EXTT4=
EXTT5=
EXTT6=
EXTT7=
EXTT8=
EXTT9=
EXTT10=
EXTT11=
EXTT12=
EXTT13=
EXTT14=
EXTT15=
EXTT16=
EXTT17=
EXTT18=
EXTT19=
EXTT20=
EXTT21=
EXTT22=
PLAYORDER=
